<svg xmlns="http://www.w3.org/2000/svg" width="32" height="32" viewBox="0 0 32 32">
    <g data-name="Group 21260" transform="translate(-40.022 -312.022)">
        <rect data-name="Rectangle 10" width="32" height="32" rx="8" transform="translate(40.022 312.022)" style="fill:#00ccb6"/>
        <g data-name="Group 8">
            <path data-name="Rectangle 2" style="fill:none" d="M0 0h19.116v19.116H0z" transform="translate(46.379 318.379)"/>
            <path data-name="Path 4" d="M19.538 38.291a.6.6 0 0 1-.6-.6v-3.186a2.061 2.061 0 0 1-1.053.194 2.091 2.091 0 1 1 1.053-3.972v-3.189a.6.6 0 0 1 .6-.6h3.487a2.061 2.061 0 0 1-.194-1.053 2.091 2.091 0 1 1 3.969 1.056h3.487a.6.6 0 0 1 .6.6v3.188a2.061 2.061 0 0 0-1.053-.194 2.091 2.091 0 1 0 1.053 3.972v3.188a.6.6 0 0 1-.6.6z" transform="translate(31.619 296.217)" style="stroke:#fff;stroke-linecap:round;stroke-linejoin:round;stroke-width:2px;fill:none"/>
        </g>
    </g>
</svg>
